inDegrees=no
num_controls=7
num_derivatives=13
num_iterations=173
num_multipliers=7
num_parameters=0
num_slacks=7
num_states=26
objective=5.040793
objective_accelerations=0.402145
objective_balance=0.044706
objective_effort=0.411680
objective_height=4.099620
objective_ligament=0.082642
solver_duration=1918.661489
status=Solve_Succeeded
success=true
DataType=double
version=3
OpenSimVersion=4.4-2022-07-23-0e9fedc
endheader
time	/jointset/ground_pelvis/pelvis_tilt/value	/jointset/ground_pelvis/pelvis_tx/value	/jointset/ground_pelvis/pelvis_ty/value	/jointset/hip_l/hip_flexion_l/value	/jointset/hip_l/hip_adduction_l/value	/jointset/hip_l/hip_rotation_l/value	/jointset/back/lumbar_extension/value	/jointset/patellofemoral_l/patellar_flexion_l/value	/jointset/knee_l/knee_flexion_l/value	/jointset/knee_l/knee_adduction_l/value	/jointset/knee_l/knee_rotation_l/value	/jointset/ankle_l/ankle_angle_l/value	/jointset/subtalar_l/subtalar_angle_l/value	/jointset/ground_pelvis/pelvis_tilt/speed	/jointset/ground_pelvis/pelvis_tx/speed	/jointset/ground_pelvis/pelvis_ty/speed	/jointset/hip_l/hip_flexion_l/speed	/jointset/hip_l/hip_adduction_l/speed	/jointset/hip_l/hip_rotation_l/speed	/jointset/back/lumbar_extension/speed	/jointset/patellofemoral_l/patellar_flexion_l/speed	/jointset/knee_l/knee_flexion_l/speed	/jointset/knee_l/knee_adduction_l/speed	/jointset/knee_l/knee_rotation_l/speed	/jointset/ankle_l/ankle_angle_l/speed	/jointset/subtalar_l/subtalar_angle_l/speed	/forceset/tau_hip_flexion_l	/forceset/tau_hip_adduction_l	/forceset/tau_hip_rotation_l	/forceset/tau_knee_flexion_l	/forceset/tau_ankle_angle_l	/forceset/tau_subtalar_angle_l	/forceset/tau_lumbar_extension	lambda_cid13_p0	lambda_cid13_p1	lambda_cid13_p2	lambda_cid13_p3	lambda_cid13_p4	lambda_cid13_p5	lambda_cid14_p0	/jointset/ground_pelvis/pelvis_tilt/accel	/jointset/ground_pelvis/pelvis_tx/accel	/jointset/ground_pelvis/pelvis_ty/accel	/jointset/hip_l/hip_flexion_l/accel	/jointset/hip_l/hip_adduction_l/accel	/jointset/hip_l/hip_rotation_l/accel	/jointset/back/lumbar_extension/accel	/jointset/patellofemoral_l/patellar_flexion_l/accel	/jointset/knee_l/knee_flexion_l/accel	/jointset/knee_l/knee_adduction_l/accel	/jointset/knee_l/knee_rotation_l/accel	/jointset/ankle_l/ankle_angle_l/accel	/jointset/subtalar_l/subtalar_angle_l/accel	gamma_cid13_p0	gamma_cid13_p1	gamma_cid13_p2	gamma_cid13_p3	gamma_cid13_p4	gamma_cid13_p5	gamma_cid14_p0
1.5	-0.4429720967557644	-0.08300873919854444	0.7900015066642299	1.151269122697594	-0.3060342447592842	-0.1147607228359379	-0.3335218983433749	0.5044869595008099	0.5044869595008289	-0.1744703415957474	0.1745195820373834	-0.05182534379293493	-0.06112554867886199	0.7436715203939714	0.3053106055742905	0.3726320180804805	-2.022198483036058	0.0715491196822433	-0.4181986388069162	0.5729201880555452	-1.246852228415794	-1.246852228415643	0.0006567137100876086	-1.72677277961637e-05	-0.01386976560974194	0.07929113870006281	-0.2433698928868644	0.01151199014531995	-0.0178969274460531	-0.1695190284456099	0.1711785842998234	0.04460582732687501	0.2193935002298409	15.28230501755356	-25.03735413609881	7.003631072689665	-5.186655799505222	-615.1056905730372	-66.47284686476144	-37.26998440988964	0.4688943872308493	0.5861099943646358	-0.1600573625951444	-1.347711059177858	0.3268195351395381	-0.2080584822546601	1.515050822817386	-0.7842294207684661	-0.7842294207684551	0.01675580269769331	-0.02170562929377185	0.1674925935173888	0.3503960737740502	-3.102850228462305e-08	4.97536175771431e-07	-3.01087464897489e-08	9.227413708154217e-08	9.04463475799929e-08	-2.700979365777482e-08	6.31240985663633e-08
1.51	-0.4355124804951536	-0.07992662859699569	0.7937191353381611	1.130981793628207	-0.3053030047228576	-0.1189534531709231	-0.327718214414796	0.4919809402989594	0.4919809402989793	-0.1744637321961705	0.1745194504696067	-0.05195571780200274	-0.06031571200193708	0.748149665771725	0.3110750877818878	0.3708219170979025	-2.034989386623759	0.07469756587628734	-0.4202929159066456	0.587739319077501	-1.254176123030762	-1.254176123030589	0.0006672182286897736	-9.25320050476766e-06	-0.01219373771232564	0.0826753081162975	-0.2357130316488193	0.01055008624227042	-0.01796756808573439	-0.1688089969988136	0.1702261240425896	0.04357890470547487	0.2135004857815991	15.15793202633502	-24.68251080061782	7.076048001606796	-4.998634832218734	-611.618306236309	-66.61410477961823	-37.71410316721372	0.421965620305799	0.5661705415936173	-0.2022341887963218	-1.203085868930785	0.3085823912519475	-0.2018614605254553	1.453752454868831	-0.6801596167527169	-0.6801596167494067	-0.006401183336920488	0.01207066532267615	0.1693518565280938	0.3322188539403141	-2.868152015136146e-08	5.135447558231038e-07	-4.433230505626297e-08	8.830354000644389e-08	1.040734355412439e-07	-2.391160334316231e-08	6.592502134916028e-08
1.52	-0.4280111445793018	-0.07678796253184293	0.7974165134577249	1.110574894350881	-0.3045403351785458	-0.1231654761042423	-0.3217686575333992	0.4794069441239809	0.4794069441239951	-0.1744569375433677	0.1745194021814147	-0.0520689927383591	-0.05947207533517136	0.7520154514397671	0.3166216982950893	0.3685819072069891	-2.046112524626044	0.07783502125893288	-0.42205715847411	0.6020947786187909	-1.260447623041401	-1.260447623041206	0.000693764356162179	-6.118099315661555e-07	-0.0104499510679398	0.08605113666821874	-0.2280561704107662	0.009588182339238008	-0.0180382087254285	-0.1680989655520132	0.1692736637853593	0.0425519820840919	0.2076074713333603	15.02702527833315	-24.32739702365229	7.149419551987865	-4.796486071202184	-608.2308661220884	-66.78563203470218	-38.13693460297993	0.3464224452889489	0.5425356554851349	-0.2460391442623035	-1.014157942094925	0.3246213728598327	-0.1420515758015942	1.422316526684407	-0.5737504999025346	-0.5737504999025229	0.01996412447173522	-0.02158025663747713	0.1810443429108475	0.3487279009112599	-2.626780323796175e-08	5.263612171901412e-07	-5.815310571198075e-08	8.394500234360915e-08	1.174231862259108e-07	-2.034265469859768e-08	6.827374567720209e-08
1.53	-0.4204742168644577	-0.0735949785784174	0.8010893779081532	1.090065097517097	-0.3037463904350554	-0.1273934906621005	-0.315678006490356	0.4667754499638766	0.4667754499638817	-0.1744498678499009	0.1745194231357589	-0.05216454825237648	-0.05859477445028503	0.7552640786254708	0.3219324578703994	0.3659215294924582	-2.055558284191084	0.08094977771903672	-0.4234911001665776	0.6159477864144105	-1.265669957037417	-1.265669957037354	0.0007231627989373458	5.480736066984031e-06	-0.008651474837836287	0.08940519360477171	-0.220331495513013	0.008528896465589906	-0.01813996201481434	-0.1674216544871949	0.1683510913381712	0.04144382744862823	0.2016234018428716	14.90072021369054	-23.93978273908509	7.219863164737621	-4.567928662321018	-604.8697882427994	-66.91133441585319	-38.53763850954713	0.2981813191330394	0.5189662536719589	-0.2864275997253008	-0.8664986919607713	0.3042027745981141	-0.1357893798992533	1.353646370091375	-0.4693012864082581	-0.4693012864279137	-0.00502991922811011	0.01185864112402009	0.1806997918547331	0.3280925015143853	-2.378318062066527e-08	5.357860524547534e-07	-7.154597608747749e-08	7.917427780630447e-08	1.304782660542069e-07	-1.627352532845895e-08	7.014200914706657e-08
